# xmcd
#
# Track frame offsets: 
#        150
#        18906
#        38958
#        60848
#        75312
#        108710
#        134958
#        159532
#        179752
#        202392
#        229196
#        248150
#        267175
#        291384
#        306429
#
# Disc length: 4441 seconds
#
# Revision: 0
# Processed by: cddbd v1.5.2PL0 Copyright (c) Steve Scherf et al.
# Submitted via: ExactAudioCopy v0.95a5
#
DISCID=e211570f
DTITLE=Various Artist - Maximal Playlist Vol.8
DYEAR=2015
DGENRE=Blues
TTITLE0=Crew 7 - Eye Of The Tiger (Future House Mix)
TTITLE1=DJ Happy Vibes feat. Jazzmin - Kinder (Extended)
TTITLE2=Dave Audé vs. Luciana - You Only Talk In #Hashtag (Extended Di
TTITLE2=rty Version)
TTITLE3=Sidney King - Wie am ersten Tag (Radio)
TTITLE4=Higheffect - Send Me An Angel (Festival Club Mix)
TTITLE5=Rockstroh - Ozean (Original Mix)
TTITLE6=Talstrasse 3-5 - Die Kontaktanzeige (Andy LaToggo Remix)
TTITLE7=Daniel Curve feat. Rob Sherman - Rock This Life (Club Mix)
TTITLE8=DJ Happy Vibes feat. Jazzmin - Colours (Extended englisch)
TTITLE9=DJ Brainstorm feat. Dani - Der blaue Planet (Extended Mix)
TTITLE10=De Lancaster feat. Ben Luca - Major Tom (völlig losgelöst) 20
TTITLE10=15
TTITLE11=Alex B. and Judith - Siesta (Clubmix)
TTITLE12=Christian Tanz - Rocking On The Floor (Extended Mix)
TTITLE13=Helena - Choreo (Live Version)
TTITLE14=DJ Happy Vibes meets De Lancaster - Butterfly (Maxi Version)
EXTD=
EXTT0=
EXTT1=
EXTT2=
EXTT3=
EXTT4=
EXTT5=
EXTT6=
EXTT7=
EXTT8=
EXTT9=
EXTT10=
EXTT11=
EXTT12=
EXTT13=
EXTT14=
PLAYORDER=
